<?xml version="1.0" encoding="utf-8"?>
<!-- Generator: Adobe Illustrator 15.0.2, SVG Export Plug-In  -->
<!DOCTYPE svg PUBLIC "-//W3C//DTD SVG 1.1//EN" "http://www.w3.org/Graphics/SVG/1.1/DTD/svg11.dtd" [
	<!ENTITY ns_flows "http://ns.adobe.com/Flows/1.0/">
]>
<svg version="1.1"
	 xmlns="http://www.w3.org/2000/svg" xmlns:xlink="http://www.w3.org/1999/xlink" xmlns:a="http://ns.adobe.com/AdobeSVGViewerExtensions/3.0/"
	 x="0px" y="0px" width="288px" height="288px" viewBox="0 0 288 288" overflow="visible" enable-background="new 0 0 288 288"
	 xml:space="preserve">
<defs>
</defs>
<circle fill="#C15E00" cx="144" cy="144" r="144"/>
<g>
	<path fill="#FFFFFF" d="M213.4,148.6c-9.9-17.1-26.1-45.2-36-62.4l-15.6-27c-9.9-17.1-26.1-17.1-36,0l-15.6,27
		c-9.9,17.1-26.1,45.2-36,62.4l-15.6,27c-9.9,17.1-1.8,31.2,18,31.2h31.1c19.8,0,52.2,0,72,0H211c19.8,0,27.9-14,18-31.2
		L213.4,148.6z"/>
</g>
<ellipse fill="#C15E00" cx="144.1" cy="176.2" rx="11.9" ry="11.9"/>
<path fill="#C15E00" d="M148.7,153.6h-8.9c-1.5-37.1-7.6-64.3-7.6-69.9s5.4-10.1,12-10.1s12,4.5,12,10.1S151,117.4,148.7,153.6z"/>
</svg>
